<svg width="16" height="16" viewBox="0 0 16 16" fill="none" xmlns="http://www.w3.org/2000/svg">
    <path fill-rule="evenodd" clip-rule="evenodd" d="M9.667 2.334H5v1c0 .115.26.333.667.333H9c.407 0 .667-.218.667-.333v-1zM3.333 4.001v8h3.394c.08.478.246.928.481 1.333H2V2.667h2V1.334h6.667v1.333h2v5.208a3.978 3.978 0 0 0-1.334-.481V4.001h-.898c-.288.397-.82.666-1.435.666H5.667c-.616 0-1.147-.269-1.436-.666h-.898zM6 6.667H4.667V5.334H6v1.333zm2.667 4.934L10 12.934l2.667-2.666-.534-.534L10 11.867l-.8-.8-.533.534zm-1.334-.267a3.333 3.333 0 1 1 6.667 0 3.333 3.333 0 0 1-6.667 0zm-.666-4.667H10V5.334H6.667v1.333zm-.667 2H4.667V7.334H6v1.333zm.667 0h1.027A3.99 3.99 0 0 1 10 7.394v-.06H6.667v1.333zm-.667 2H4.667V9.334H6v1.333zm.667 0h.06c.08-.478.246-.928.481-1.333h-.541v1.333z" fill="#0074D2"/>
</svg>
