<svg width="16" height="16" viewBox="0 0 16 16" fill="none" xmlns="http://www.w3.org/2000/svg">
    <path d="M8.017 1.334h.068c.37.001.723.025 1.083.113l.07.017c1.356.334 2.524 1.225 3.247 2.414.278.473.472.983.602 1.515l.016.064c.102.433.103.858.103 1.3v.288l.001.56v.455l.001 1.292v.14a607.56 607.56 0 0 0 .002 2.291 235.735 235.735 0 0 0 .001 1.206 44.342 44.342 0 0 0 0 .589l.001.09c-.001.16-.008.257-.117.378-.108.096-.204.12-.342.138-.187-.021-.323-.142-.45-.273l-.046-.047-.145-.147-.097-.098a6.575 6.575 0 0 1-.407-.438.878.878 0 0 0-.14-.118l-.3.298-.101.102c-.237.234-.237.234-.46.481-.101.116-.211.223-.32.332l-.073.074-.071.071-.064.065a.415.415 0 0 1-.309.117l-.076.004c-.208-.04-.361-.205-.497-.358a30.363 30.363 0 0 0-.101-.11l-.053-.059c-.097-.104-.197-.204-.297-.304l-.062-.061-.186-.186-.13-.129-.311-.31a.652.652 0 0 0-.214.156 69.77 69.77 0 0 1-.066.065l-.07.071a73.061 73.061 0 0 0-.42.422l-.151.151-.106.107a5.75 5.75 0 0 0-.328.355.513.513 0 0 1-.324.184c-.207.008-.308-.041-.462-.183a8.316 8.316 0 0 1-.076-.076l-.042-.042a30.68 30.68 0 0 1-.216-.218 7.04 7.04 0 0 1-.371-.396c-.11-.122-.227-.236-.343-.351a59.543 59.543 0 0 0-.08-.08l-.193-.192c-.113.094-.216.19-.314.3-.136.15-.277.298-.42.443l-.107.11c-.247.25-.247.25-.442.265a.548.548 0 0 1-.4-.196c-.08-.124-.062-.267-.061-.409V10.537l.001-1.135a772.238 772.238 0 0 1 0-1.369v-.065a288.7 288.7 0 0 0 0-1.014l.001-.283c-.001-.508.025-.994.158-1.485l.02-.075c.157-.566.416-1.12.763-1.594l.057-.08a5.174 5.174 0 0 1 1.885-1.579c.36-.183.732-.308 1.124-.404l.063-.016a4.688 4.688 0 0 1 1.094-.104zM5.112 5.923l-.05.035c-.208.163-.334.39-.416.638l-.017.052c-.09.302-.029.619.111.895.183.312.447.545.795.657.383.085.74.015 1.07-.193.276-.195.455-.472.538-.801a1.36 1.36 0 0 0-.227-1.013 1.394 1.394 0 0 0-.9-.529 1.314 1.314 0 0 0-.904.259zm4.082.207a1.35 1.35 0 0 0-.284 1.009c.073.373.263.665.571.883.302.196.636.253.991.187.363-.101.645-.312.831-.638.176-.35.21-.668.094-1.044a1.469 1.469 0 0 0-.188-.345l-.035-.05c-.163-.208-.39-.335-.637-.416l-.052-.018c-.476-.14-.971.077-1.291.432z" fill="#2FAE2F"/>
</svg>
