<!--
  - CLOUDERA APPLIED MACHINE LEARNING PROTOTYPE (AMP)
  - (C) Cloudera, Inc. 2024
  - All rights reserved.
  -
  - Applicable Open Source License: Apache 2.0
  -
  - NOTE: Cloudera open source products are modular software products
  - made up of hundreds of individual components, each of which was
  - individually copyrighted.  Each Cloudera open source product is a
  - collective work under U.S. Copyright Law. Your license to use the
  - collective work is as provided in your written agreement with
  - Cloudera.  Used apart from the collective work, this file is
  - licensed for your use pursuant to the open source license
  - identified above.
  -
  - This code is provided to you pursuant a written agreement with
  - (i) Cloudera, Inc. or (ii) a third-party authorized to distribute
  - this code. If you do not have a written agreement with Cloudera nor
  - with an authorized and properly licensed third party, you do not
  - have any rights to access nor to use this code.
  -
  - Absent a written agreement with Cloudera, Inc. (“Cloudera”) to the
  - contrary, A) CLOUDERA PROVIDES THIS CODE TO YOU WITHOUT WARRANTIES OF ANY
  - KIND; (B) CLOUDERA DISCLAIMS ANY AND ALL EXPRESS AND IMPLIED
  - WARRANTIES WITH RESPECT TO THIS CODE, INCLUDING BUT NOT LIMITED TO
  - IMPLIED WARRANTIES OF TITLE, NON-INFRINGEMENT, MERCHANTABILITY AND
  - FITNESS FOR A PARTICULAR PURPOSE; (C) CLOUDERA IS NOT LIABLE TO YOU,
  - AND WILL NOT DEFEND, INDEMNIFY, NOR HOLD YOU HARMLESS FOR ANY CLAIMS
  - ARISING FROM OR RELATED TO THE CODE; AND (D)WITH RESPECT TO YOUR EXERCISE
  - OF ANY RIGHTS GRANTED TO YOU FOR THE CODE, CLOUDERA IS NOT LIABLE FOR ANY
  - DIRECT, INDIRECT, INCIDENTAL, SPECIAL, EXEMPLARY, PUNITIVE OR
  - CONSEQUENTIAL DAMAGES INCLUDING, BUT NOT LIMITED TO, DAMAGES
  - RELATED TO LOST REVENUE, LOST PROFITS, LOSS OF INCOME, LOSS OF
  - BUSINESS ADVANTAGE OR UNAVAILABILITY, OR LOSS OR CORRUPTION OF
  - DATA.
  -->

<svg width="83" height="40" viewBox="0 0 83 40" fill="none" xmlns="http://www.w3.org/2000/svg">
<path fill-rule="evenodd" clip-rule="evenodd" d="M37.4238 12.5636C37.4238 14.0725 36.5443 14.983 35.3076 14.983C34.0709 14.983 33.1914 14.0725 33.1914 12.5636V7.23748H30.9514V12.4781C30.9514 15.2378 32.7104 16.98 35.3076 16.98C37.904 16.98 39.6631 15.2378 39.6631 12.4781V7.23748H37.4238V12.5636ZM79.2376 13.0508L77.8923 9.71337L76.5469 13.0508H79.2376ZM83 16.7626H80.7347L79.9504 14.8187H75.8342L75.0507 16.7626H72.7854L76.867 7.23748H78.8729L83 16.7626ZM69.7164 10.5234C69.7164 10.1026 69.5453 9.70922 69.2859 9.48429C68.9927 9.23031 68.5715 9.09834 67.986 9.09834H65.8453V11.9585H67.9927C68.5673 11.9585 68.9758 11.8307 69.2656 11.585C69.5386 11.3534 69.7164 10.9559 69.7164 10.5234ZM69.4956 13.5579L72.2538 16.7626H69.6464L67.0787 13.7555H65.8453V16.7626H63.6508V7.23748H68.109C69.3516 7.23748 70.2639 7.53628 70.9185 8.0874C71.5731 8.63852 71.9539 9.48512 71.9539 10.4927C71.9539 11.7543 71.4097 13.0649 69.4956 13.5579ZM13.1876 7.23748H10.9484V16.7626H17.7233V14.8245H13.1876V7.23748ZM5.17597 14.9681C3.52225 14.9681 2.32346 13.6824 2.32346 11.9992C2.32346 10.3159 3.52225 9.03277 5.17597 9.03277C5.97208 9.03277 6.62918 9.31165 7.20373 9.84783L8.64683 8.42604C7.77491 7.5396 6.55842 7.02002 5.15154 7.02002C2.24258 7.02002 0 9.2079 0 12C0 14.793 2.24258 16.98 5.15154 16.98C6.6216 16.98 7.90885 16.3949 8.78584 15.4121L7.35031 13.9978C6.77071 14.6286 6.07907 14.9681 5.17597 14.9681ZM49.3099 12C49.3099 10.2803 48.0487 9.1415 46.1709 9.1415H44.6941V14.8585H46.1709C48.0487 14.8585 49.3099 13.7198 49.3099 12ZM51.6342 12C51.6342 14.8486 49.5019 16.7626 46.3293 16.7626H42.4549V7.23748H46.235C49.4084 7.23748 51.6342 9.15146 51.6342 12ZM26.4308 12.015C26.4308 10.2778 25.2767 9.01783 23.6482 9.01783C22.0215 9.01783 20.8665 10.2778 20.8665 12.015C20.8665 13.7347 22.0215 14.983 23.6482 14.983C25.2767 14.983 26.4308 13.7347 26.4308 12.015ZM28.7543 12.0141C28.7543 14.7988 26.6145 16.98 23.6482 16.98C20.6828 16.98 18.543 14.7988 18.543 12.0141C18.543 9.21371 20.6828 7.02002 23.6482 7.02002C26.6145 7.02002 28.7543 9.21371 28.7543 12.0141ZM52.6518 16.7626H61.0274V14.7938H53.977C53.6628 15.54 53.2129 16.1982 52.6518 16.7626ZM59.837 12.9437V10.9941H54.4353C54.4825 11.3277 54.5145 11.668 54.5145 12.0224C54.5145 12.3387 54.49 12.6441 54.4538 12.9437H59.837ZM52.5448 7.23748H60.9836V9.20624H53.9399C53.6063 8.45841 53.1312 7.80105 52.5448 7.23748Z" fill="white"/>
<path d="M7.53 32.98L4.14 28.24H2.745V32.98H1.35V22.39H5.04C7.53 22.39 8.475 23.575 8.475 25.27C8.475 26.86 7.725 28.015 5.67 28.21L9.105 32.98H7.53ZM2.745 23.5V27.175H4.725C6.39 27.175 7.02 26.53 7.02 25.315C7.02 24.1 6.375 23.5 4.725 23.5H2.745ZM17.3089 32.98L16.4389 30.325H11.8639L10.9789 32.98H9.53895L13.0939 22.39H15.1939L18.7489 32.98H17.3089ZM12.2239 29.2H16.0639L14.1739 23.41H14.1439L12.2239 29.2ZM24.3628 27.445H28.4878V28.165C28.4878 30.925 27.3778 33.22 24.0928 33.22C20.6428 33.22 19.3828 30.685 19.3828 27.685C19.3828 24.625 20.6878 22.15 24.1528 22.15C26.6578 22.15 28.2628 23.575 28.3828 25.93H27.0178C26.8828 24.22 25.8628 23.38 24.1228 23.38C21.4978 23.38 20.8378 25.375 20.8378 27.685C20.8378 30.085 21.5428 31.99 24.1378 31.99C26.4478 31.99 27.1228 30.52 27.1378 28.645H24.3628V27.445ZM36.4629 33.22C33.5379 33.22 32.5179 31.6 32.5179 29.545H34.0329C34.0329 31.015 34.5729 32.095 36.4779 32.095C38.0829 32.095 38.8629 31.3 38.8629 30.22C38.8629 28.855 37.6479 28.525 35.8179 28.015C33.9579 27.505 32.7429 26.83 32.7429 25.105C32.7429 23.47 33.9579 22.15 36.3129 22.15C38.8779 22.15 39.9129 23.68 39.9129 25.66H38.4729C38.4729 24.25 37.9179 23.26 36.2829 23.26C34.8729 23.26 34.1679 24.01 34.1679 24.955C34.1679 26.26 35.3229 26.515 37.1229 27.01C39.1779 27.595 40.3629 28.21 40.3629 30.055C40.3629 31.945 39.0129 33.22 36.4629 33.22ZM44.4681 33.1C42.9981 33.1 42.3531 32.44 42.3531 30.835V26.755H41.2131V25.675H42.3531V23.905H43.6431V25.675H45.7281V26.755H43.6431V30.655C43.6431 31.585 44.0481 31.99 44.8281 31.99C45.0981 31.99 45.4131 31.945 45.6981 31.87V32.95C45.3231 33.04 44.8581 33.1 44.4681 33.1ZM52.2148 25.675H53.5198V32.98H52.2148V31.96C51.7348 32.77 50.9398 33.16 49.9048 33.16C48.2098 33.16 47.3248 32.155 47.3248 30.19V25.675H48.6148V29.935C48.6148 31.39 49.1698 32.02 50.3248 32.02C51.5248 32.02 52.2148 31.315 52.2148 29.95V25.675ZM60.8333 22.39H62.1383V32.98H60.8483V31.84C60.3383 32.71 59.4833 33.145 58.4183 33.145C56.1983 33.145 55.2833 31.36 55.2833 29.32C55.2833 27.34 56.1683 25.495 58.4183 25.495C59.4833 25.495 60.3233 25.915 60.8333 26.785V22.39ZM58.7783 32.02C60.0683 32.02 60.8483 31.12 60.8483 29.53V29.11C60.8483 27.55 60.0683 26.635 58.7783 26.635C57.1883 26.635 56.6633 27.895 56.6633 29.32C56.6633 30.745 57.1733 32.02 58.7783 32.02ZM65.0516 24.085C64.5566 24.085 64.1966 23.725 64.1966 23.245C64.1966 22.75 64.5566 22.39 65.0516 22.39C65.5316 22.39 65.9216 22.75 65.9216 23.245C65.9216 23.725 65.5316 24.085 65.0516 24.085ZM64.3916 32.98V25.675H65.6966V32.98H64.3916ZM70.9362 33.16C68.4762 33.16 67.4562 31.315 67.4562 29.335C67.4562 27.295 68.5062 25.495 70.9362 25.495C73.4412 25.495 74.4312 27.37 74.4312 29.335C74.4312 31.33 73.4262 33.16 70.9362 33.16ZM70.9362 32.02C72.6162 32.02 73.0512 30.685 73.0512 29.335C73.0512 27.88 72.5712 26.635 70.9362 26.635C69.2862 26.635 68.8212 27.955 68.8212 29.335C68.8212 30.79 69.3462 32.02 70.9362 32.02Z" fill="white"/>
</svg>
